{
    "asset" : {
        "generator" : "Khronos glTF Blender I/O v1.6.16",
        "version" : "2.0"
    },
    "scene" : 0,
    "scenes" : [
        {
            "name" : "Scene",
            "nodes" : [
                0,
                1,
                2,
                3
            ]
        }
    ],
    "nodes" : [
        {
            "mesh" : 0,
            "name" : "Bridge_Mod01"
        },
        {
            "mesh" : 0,
            "name" : "Bridge_Mod02",
            "translation" : [
                0,
                0,
                -40
            ]
        },
        {
            "mesh" : 0,
            "name" : "Bridge_Mod03",
            "translation" : [
                0,
                0,
                40
            ]
        },
        {
            "mesh" : 1,
            "name" : "Gravel"
        }
    ],
    "meshes" : [
        {
            "name" : "Plane",
            "primitives" : [
                {
                    "attributes" : {
                        "POSITION" : 0,
                        "NORMAL" : 1,
                        "TANGENT" : 2,
                        "TEXCOORD_0" : 3
                    },
                    "indices" : 4
                }
            ]
        },
        {
            "name" : "Plane.002",
            "primitives" : [
                {
                    "attributes" : {
                        "POSITION" : 5,
                        "NORMAL" : 6,
                        "TANGENT" : 7,
                        "TEXCOORD_0" : 8
                    },
                    "indices" : 9
                }
            ]
        }
    ],
    "accessors" : [
        {
            "bufferView" : 0,
            "componentType" : 5126,
            "count" : 184,
            "max" : [
                7.632641315460205,
                0.8500000238418579,
                20
            ],
            "min" : [
                -7.632641315460205,
                -1.7962520122528076,
                -20
            ],
            "type" : "VEC3"
        },
        {
            "bufferView" : 1,
            "componentType" : 5126,
            "count" : 184,
            "type" : "VEC3"
        },
        {
            "bufferView" : 2,
            "componentType" : 5126,
            "count" : 184,
            "type" : "VEC4"
        },
        {
            "bufferView" : 3,
            "componentType" : 5126,
            "count" : 184,
            "type" : "VEC2"
        },
        {
            "bufferView" : 4,
            "componentType" : 5123,
            "count" : 276,
            "type" : "SCALAR"
        },
        {
            "bufferView" : 5,
            "componentType" : 5126,
            "count" : 4,
            "max" : [
                4.849999904632568,
                -0.25595638155937195,
                60
            ],
            "min" : [
                -4.849999904632568,
                -0.25595638155937195,
                -60
            ],
            "type" : "VEC3"
        },
        {
            "bufferView" : 6,
            "componentType" : 5126,
            "count" : 4,
            "type" : "VEC3"
        },
        {
            "bufferView" : 7,
            "componentType" : 5126,
            "count" : 4,
            "type" : "VEC4"
        },
        {
            "bufferView" : 8,
            "componentType" : 5126,
            "count" : 4,
            "type" : "VEC2"
        },
        {
            "bufferView" : 9,
            "componentType" : 5123,
            "count" : 6,
            "type" : "SCALAR"
        }
    ],
    "bufferViews" : [
        {
            "buffer" : 0,
            "byteLength" : 2208,
            "byteOffset" : 0
        },
        {
            "buffer" : 0,
            "byteLength" : 2208,
            "byteOffset" : 2208
        },
        {
            "buffer" : 0,
            "byteLength" : 2944,
            "byteOffset" : 4416
        },
        {
            "buffer" : 0,
            "byteLength" : 1472,
            "byteOffset" : 7360
        },
        {
            "buffer" : 0,
            "byteLength" : 552,
            "byteOffset" : 8832
        },
        {
            "buffer" : 0,
            "byteLength" : 48,
            "byteOffset" : 9384
        },
        {
            "buffer" : 0,
            "byteLength" : 48,
            "byteOffset" : 9432
        },
        {
            "buffer" : 0,
            "byteLength" : 64,
            "byteOffset" : 9480
        },
        {
            "buffer" : 0,
            "byteLength" : 32,
            "byteOffset" : 9544
        },
        {
            "buffer" : 0,
            "byteLength" : 12,
            "byteOffset" : 9576
        }
    ],
    "buffers" : [
        {
            "byteLength" : 9588,
            "uri" : "data:application/octet-stream;base64,"
        }
    ]
}
