{
    "asset" : {
        "generator" : "Khronos glTF Blender I/O v1.6.16",
        "version" : "2.0"
    },
    "scene" : 0,
    "scenes" : [
        {
            "name" : "Scene",
            "nodes" : [
                0,
                1,
                2,
                3,
                4,
                5,
                6,
                7
            ]
        }
    ],
    "nodes" : [
        {
            "mesh" : 0,
            "name" : "Bridge_Mod01"
        },
        {
            "mesh" : 0,
            "name" : "Bridge_Mod02",
            "translation" : [
                0,
                0,
                -40
            ]
        },
        {
            "mesh" : 0,
            "name" : "Bridge_Mod03",
            "translation" : [
                0,
                0,
                40
            ]
        },
        {
            "mesh" : 1,
            "name" : "Gravel"
        },
        {
            "mesh" : 2,
            "name" : "Tunnel_Entrance1",
            "translation" : [
                0,
                0,
                -14
            ]
        },
        {
            "mesh" : 2,
            "name" : "Tunnel_Entrance0",
            "rotation" : [
                0,
                1,
                0,
                7.549790126404332e-08
            ],
            "translation" : [
                0,
                0,
                52
            ]
        },
        {
            "mesh" : 3,
            "name" : "Blackout1",
            "rotation" : [
                0,
                1,
                0,
                7.549790126404332e-08
            ],
            "translation" : [
                0,
                0,
                52
            ]
        },
        {
            "mesh" : 4,
            "name" : "Blackout0",
            "translation" : [
                0,
                0,
                -13.999998092651367
            ]
        }
    ],
    "meshes" : [
        {
            "name" : "Plane",
            "primitives" : [
                {
                    "attributes" : {
                        "POSITION" : 0,
                        "NORMAL" : 1,
                        "TANGENT" : 2,
                        "TEXCOORD_0" : 3
                    },
                    "indices" : 4
                }
            ]
        },
        {
            "name" : "Plane.002",
            "primitives" : [
                {
                    "attributes" : {
                        "POSITION" : 5,
                        "NORMAL" : 6,
                        "TANGENT" : 7,
                        "TEXCOORD_0" : 8
                    },
                    "indices" : 9
                }
            ]
        },
        {
            "name" : "Cube",
            "primitives" : [
                {
                    "attributes" : {
                        "POSITION" : 10,
                        "NORMAL" : 11,
                        "TANGENT" : 12,
                        "TEXCOORD_0" : 13
                    },
                    "indices" : 14
                }
            ]
        },
        {
            "name" : "Cube.001",
            "primitives" : [
                {
                    "attributes" : {
                        "POSITION" : 15,
                        "NORMAL" : 16,
                        "TANGENT" : 17,
                        "TEXCOORD_0" : 18
                    },
                    "indices" : 9
                }
            ]
        },
        {
            "name" : "Cube.002",
            "primitives" : [
                {
                    "attributes" : {
                        "POSITION" : 19,
                        "NORMAL" : 20,
                        "TANGENT" : 21,
                        "TEXCOORD_0" : 22
                    },
                    "indices" : 9
                }
            ]
        }
    ],
    "accessors" : [
        {
            "bufferView" : 0,
            "componentType" : 5126,
            "count" : 184,
            "max" : [
                7.632641315460205,
                0.8500000238418579,
                20
            ],
            "min" : [
                -7.632641315460205,
                -1.7962520122528076,
                -20
            ],
            "type" : "VEC3"
        },
        {
            "bufferView" : 1,
            "componentType" : 5126,
            "count" : 184,
            "type" : "VEC3"
        },
        {
            "bufferView" : 2,
            "componentType" : 5126,
            "count" : 184,
            "type" : "VEC4"
        },
        {
            "bufferView" : 3,
            "componentType" : 5126,
            "count" : 184,
            "type" : "VEC2"
        },
        {
            "bufferView" : 4,
            "componentType" : 5123,
            "count" : 276,
            "type" : "SCALAR"
        },
        {
            "bufferView" : 5,
            "componentType" : 5126,
            "count" : 4,
            "max" : [
                4.849999904632568,
                -0.25595638155937195,
                60
            ],
            "min" : [
                -4.849999904632568,
                -0.25595638155937195,
                -60
            ],
            "type" : "VEC3"
        },
        {
            "bufferView" : 6,
            "componentType" : 5126,
            "count" : 4,
            "type" : "VEC3"
        },
        {
            "bufferView" : 7,
            "componentType" : 5126,
            "count" : 4,
            "type" : "VEC4"
        },
        {
            "bufferView" : 8,
            "componentType" : 5126,
            "count" : 4,
            "type" : "VEC2"
        },
        {
            "bufferView" : 9,
            "componentType" : 5123,
            "count" : 6,
            "type" : "SCALAR"
        },
        {
            "bufferView" : 10,
            "componentType" : 5126,
            "count" : 201,
            "max" : [
                7.899999141693115,
                8,
                12
            ],
            "min" : [
                -7.90000057220459,
                -11,
                -46
            ],
            "type" : "VEC3"
        },
        {
            "bufferView" : 11,
            "componentType" : 5126,
            "count" : 201,
            "type" : "VEC3"
        },
        {
            "bufferView" : 12,
            "componentType" : 5126,
            "count" : 201,
            "type" : "VEC4"
        },
        {
            "bufferView" : 13,
            "componentType" : 5126,
            "count" : 201,
            "type" : "VEC2"
        },
        {
            "bufferView" : 14,
            "componentType" : 5123,
            "count" : 366,
            "type" : "SCALAR"
        },
        {
            "bufferView" : 15,
            "componentType" : 5126,
            "count" : 4,
            "max" : [
                6.349998950958252,
                6.449999809265137,
                8
            ],
            "min" : [
                -6.350000381469727,
                -1.0749999284744263,
                -4
            ],
            "type" : "VEC3"
        },
        {
            "bufferView" : 16,
            "componentType" : 5126,
            "count" : 4,
            "type" : "VEC3"
        },
        {
            "bufferView" : 17,
            "componentType" : 5126,
            "count" : 4,
            "type" : "VEC4"
        },
        {
            "bufferView" : 18,
            "componentType" : 5126,
            "count" : 4,
            "type" : "VEC2"
        },
        {
            "bufferView" : 19,
            "componentType" : 5126,
            "count" : 4,
            "max" : [
                6.349998950958252,
                6.449999809265137,
                8
            ],
            "min" : [
                -6.350000381469727,
                -1.0749999284744263,
                -4
            ],
            "type" : "VEC3"
        },
        {
            "bufferView" : 20,
            "componentType" : 5126,
            "count" : 4,
            "type" : "VEC3"
        },
        {
            "bufferView" : 21,
            "componentType" : 5126,
            "count" : 4,
            "type" : "VEC4"
        },
        {
            "bufferView" : 22,
            "componentType" : 5126,
            "count" : 4,
            "type" : "VEC2"
        }
    ],
    "bufferViews" : [
        {
            "buffer" : 0,
            "byteLength" : 2208,
            "byteOffset" : 0
        },
        {
            "buffer" : 0,
            "byteLength" : 2208,
            "byteOffset" : 2208
        },
        {
            "buffer" : 0,
            "byteLength" : 2944,
            "byteOffset" : 4416
        },
        {
            "buffer" : 0,
            "byteLength" : 1472,
            "byteOffset" : 7360
        },
        {
            "buffer" : 0,
            "byteLength" : 552,
            "byteOffset" : 8832
        },
        {
            "buffer" : 0,
            "byteLength" : 48,
            "byteOffset" : 9384
        },
        {
            "buffer" : 0,
            "byteLength" : 48,
            "byteOffset" : 9432
        },
        {
            "buffer" : 0,
            "byteLength" : 64,
            "byteOffset" : 9480
        },
        {
            "buffer" : 0,
            "byteLength" : 32,
            "byteOffset" : 9544
        },
        {
            "buffer" : 0,
            "byteLength" : 12,
            "byteOffset" : 9576
        },
        {
            "buffer" : 0,
            "byteLength" : 2412,
            "byteOffset" : 9588
        },
        {
            "buffer" : 0,
            "byteLength" : 2412,
            "byteOffset" : 12000
        },
        {
            "buffer" : 0,
            "byteLength" : 3216,
            "byteOffset" : 14412
        },
        {
            "buffer" : 0,
            "byteLength" : 1608,
            "byteOffset" : 17628
        },
        {
            "buffer" : 0,
            "byteLength" : 732,
            "byteOffset" : 19236
        },
        {
            "buffer" : 0,
            "byteLength" : 48,
            "byteOffset" : 19968
        },
        {
            "buffer" : 0,
            "byteLength" : 48,
            "byteOffset" : 20016
        },
        {
            "buffer" : 0,
            "byteLength" : 64,
            "byteOffset" : 20064
        },
        {
            "buffer" : 0,
            "byteLength" : 32,
            "byteOffset" : 20128
        },
        {
            "buffer" : 0,
            "byteLength" : 48,
            "byteOffset" : 20160
        },
        {
            "buffer" : 0,
            "byteLength" : 48,
            "byteOffset" : 20208
        },
        {
            "buffer" : 0,
            "byteLength" : 64,
            "byteOffset" : 20256
        },
        {
            "buffer" : 0,
            "byteLength" : 32,
            "byteOffset" : 20320
        }
    ],
    "buffers" : [
        {
            "byteLength" : 20352,
            "uri" : "data:application/octet-stream;base64,"
        }
    ]
}
