{
    "asset" : {
        "generator" : "Khronos glTF Blender I/O v1.6.16",
        "version" : "2.0"
    },
    "scene" : 0,
    "scenes" : [
        {
            "name" : "Scene",
            "nodes" : [
                0
            ]
        }
    ],
    "nodes" : [
        {
            "mesh" : 0,
            "name" : "jbv60_lod0_Cube.005",
            "rotation" : [
                0.7071068286895752,
                0,
                0,
                0.7071067094802856
            ],
            "translation" : [
                0,
                -0.3916090130805969,
                0
            ]
        }
    ],
    "meshes" : [
        {
            "name" : "jbv60_lod0_Cube.005",
            "primitives" : [
                {
                    "attributes" : {
                        "POSITION" : 0,
                        "NORMAL" : 1,
                        "TANGENT" : 2,
                        "TEXCOORD_0" : 3
                    },
                    "indices" : 4
                }
            ]
        }
    ],
    "accessors" : [
        {
            "bufferView" : 0,
            "componentType" : 5126,
            "count" : 2190,
            "max" : [
                1.309499979019165,
                0.15000000596046448,
                0
            ],
            "min" : [
                -1.309499979019165,
                -0.15000000596046448,
                -0.2633259892463684
            ],
            "type" : "VEC3"
        },
        {
            "bufferView" : 1,
            "componentType" : 5126,
            "count" : 2190,
            "type" : "VEC3"
        },
        {
            "bufferView" : 2,
            "componentType" : 5126,
            "count" : 2190,
            "type" : "VEC4"
        },
        {
            "bufferView" : 3,
            "componentType" : 5126,
            "count" : 2190,
            "type" : "VEC2"
        },
        {
            "bufferView" : 4,
            "componentType" : 5123,
            "count" : 8880,
            "type" : "SCALAR"
        }
    ],
    "bufferViews" : [
        {
            "buffer" : 0,
            "byteLength" : 26280,
            "byteOffset" : 0
        },
        {
            "buffer" : 0,
            "byteLength" : 26280,
            "byteOffset" : 26280
        },
        {
            "buffer" : 0,
            "byteLength" : 35040,
            "byteOffset" : 52560
        },
        {
            "buffer" : 0,
            "byteLength" : 17520,
            "byteOffset" : 87600
        },
        {
            "buffer" : 0,
            "byteLength" : 17760,
            "byteOffset" : 105120
        }
    ],
    "buffers" : [
        {
            "byteLength" : 122880,
            "uri" : "data:application/octet-stream;base64,"
        }
    ]
}
